# Made in Blockbench 5.0.4
mtllib guy_LegTop.mtl

o leg_top
v 0.025 0.75 0.15625
v 0.025 0.75 0.034375
v -0.025 -0.0625 0.1
v -0.025 -0.0625 0.034375
v -0.21875 0.75 0.15625
v -0.21875 0.75 0.034375
v -0.0359375 -0.0625 0.12578125
v -0.0359375 -0.0625 0.06484375
v 0.08125 0.53125 0.20625
v 0.08125 0.53125 0.034375
v -0.25 0.53125 0.034375
v -0.25 0.53125 0.20625
v 0.05625 0.40625 0.034375
v 0.05625 0.40625 0.20625
v -0.25 0.40625 0.034375
v -0.25 0.40625 0.20625
vt 0.1875 0.9375
vt 0.3125 0.9375
vt 0.3125 1
vt 0.1875 1
vt 0.34375 0.998828125
vt 0.34375 0.968359375
vt 0.375 0.953125
vt 0.375 0.9859375
vt 0.025 0.46573437500000003
vt 0 0.3528
vt 0.0859375 0.3528
vt 0.0859375 0.46573437500000003
vt 0.248046875 0.625
vt 0.219921875 0.515625
vt 0.385546875 0.515625
vt 0.369921875 0.625
vt 0.53125 1
vt 0.53125 0.889515625
vt 0.6171875 0.889515625
vt 0.5921875 1
vt 0.016796875 0.6875
vt 0.001171875 0.57530625
vt 0.166796875 0.57530625
vt 0.138671875 0.6875
vt 0.5625 0.6875
vt 0.71875 0.6875
vt 0.71875 0.78125
vt 0.5625 0.78125
vt 0.232421875 0.453125
vt 0.385546875 0.453125
vt 0.385546875 0.515625
vt 0.219921875 0.515625
vt 0 0.2890625
vt 0.0859375 0.2890625
vt 0.0859375 0.3528
vt 0 0.3528
vt 0.001171875 0.51280625
vt 0.154296875 0.51280625
vt 0.166796875 0.57530625
vt 0.001171875 0.57530625
vt 0.53125 0.827015625
vt 0.6171875 0.827015625
vt 0.6171875 0.889515625
vt 0.53125 0.889515625
vn 0 1 0
vn 0 -1 0
vn 0.9684929325968497 0.24904103981061845 0
vn 0 0 -1
vn -0.9899494936611667 0.14142135623730953 0
vn 0 0.222824801502141 0.9748585065718673
vn 0 -1 0
vn 0 0 -1
vn 0.9805806756909202 -0.19611613513818404 0
vn 0 0 1
vn -1 0 0
usemtl m_fe9561e1-2e04-8fdf-00b5-cff78f99f5ac
f 5/1/1 1/2/1 2/3/1 6/4/1
f 7/5/2 8/6/2 4/7/2 3/8/2
f 1/9/3 9/10/3 10/11/3 2/12/3
f 2/13/4 10/14/4 11/15/4 6/16/4
f 6/17/5 11/18/5 12/19/5 5/20/5
f 5/21/6 12/22/6 9/23/6 1/24/6
f 15/25/7 13/26/7 14/27/7 16/28/7
f 13/29/8 15/30/8 11/31/8 10/32/8
f 14/33/9 13/34/9 10/35/9 9/36/9
f 16/37/10 14/38/10 9/39/10 12/40/10
f 15/41/11 16/42/11 12/43/11 11/44/11