# Made in Blockbench 5.0.4
mtllib guy_ArmBottom.mtl

o arm_bottom
v -0.01875 1.60625 -0.5125
v -0.0375 1.54375 -0.6375
v -0.0625 0.98125 -0.5499999999999999
v -0.0625 0.98125 -0.6
v -0.175 1.60625 -0.5125
v -0.15 1.54375 -0.6375
v -0.1375 0.98125 -0.5499999999999999
v -0.1375 0.98125 -0.6
vt 0.18591 0.6509050000000001
vt 0.125 0.6864121875
vt 0.125 0.37258625
vt 0.149780625 0.37109375
vt 0.2840353125 0.84375
vt 0.59765625 0.84375
vt 0.5620365625 0.90625
vt 0.28254 0.8694265624999999
vt 0.484375 0.65625
vt 0.40625 0.65625
vt 0.415625 0.59375
vt 0.471875 0.59375
vt 0.03125 0.96875
vt 0.03125 1
vt 0 1
vt 0 0.96875
vt 0.2545503125 0.9375
vt 0.56837625 0.9375
vt 0.5629303125 1
vt 0.25193625 0.95947375
vt 0.276144375 0.652415
vt 0.219949375 0.6549071875
vt 0.219949375 0.37275499999999995
vt 0.2574128125 0.37109375
vn 0.991114635517479 -0.06232782759439818 -0.11750328153042278
vn -0.9838193705402459 -0.048683845140135865 -0.1724219515379812
vn 0 0.8944271909999161 -0.44721359549995804
vn 0 -1 0
vn 0 -0.05989229072794669 0.9982048454657788
vn 0 -0.06651901052377387 -0.9977851578566089
usemtl m_f886a12e-f710-fe62-e1aa-8b2ea556459e
f 2/1/1 1/2/1 3/3/1 4/4/1
f 7/5/2 5/6/2 6/7/2 8/8/2
f 5/9/3 1/10/3 2/11/3 6/12/3
f 4/13/4 3/14/4 7/15/4 8/16/4
f 3/17/5 1/18/5 5/19/5 7/20/5
f 6/21/6 2/22/6 4/23/6 8/24/6