# Made in Blockbench 5.0.4
mtllib guy_ArmTop.mtl

o arm_top
v -0.015625 1.796875 -0.140625
v -0.015625 1.609375 -0.515625
v -0.03125 1.578125 -0.140625
v -0.03125 1.515625 -0.515625
v -0.203125 1.796875 -0.140625
v -0.171875 1.609375 -0.515625
v -0.15625 1.578125 -0.140625
v -0.15625 1.515625 -0.515625
v -0.015625 1.546875 -0.515625
v -0.171875 1.546875 -0.515625
v -0.203125 1.734375 -0.140625
v -0.015625 1.734375 -0.140625
vt 0.3447921875 0.70130375
vt 0.345704375 0.71874875
vt 0.158201875 0.8125
vt 0.1604715625 0.7389106249999999
vt 0.191174375 0.8871859375
vt 0.19140625 0.9687503125
vt 0.0032553125 0.875
vt 0.003399375 0.8577896875
vt 0.09375 0.8125
vt 0 0.8125
vt 0 0.59375
vt 0.078125 0.59375
vt 0.375 0.46875
vt 0.375 0.65625
vt 0.3125 0.65625
vt 0.3125 0.46875
vt 0.4921875 0.703125
vt 0.5 0.78125
vt 0.40625 0.78125
vt 0.4296875 0.703125
vt 0.0703125 0.515625
vt 0.078125 0.53125
vt 0 0.53125
vt 0.0078125 0.515625
vt 0 0.5625
vt 0 0.53125
vt 0.078125 0.53125
vt 0.078125 0.5625
vt 0.0032553125 0.90625
vt 0.0032553125 0.875
vt 0.1914053125 0.96875
vt 0.1914053125 1
vt 0.40625 0.8125
vt 0.40625 0.78125
vt 0.5 0.78125
vt 0.5 0.8125
vt 0.158201875 0.84375
vt 0.158201875 0.8125
vt 0.345701875 0.71875
vt 0.345701875 0.75
vn 0.8728715609439697 -0.43643578047198484 0.21821789023599242
vn -0.9558794818157492 -0.28676384454472476 0.06372529878771661
vn 0 0.8944271909999161 -0.44721359549995804
vn 0 -0.9863939238321437 0.1643989873053573
vn 0 0 1
vn 0 0 -1
vn 0 0 -1
vn -0.9965457582448798 0 -0.08304547985373999
vn 0 0 1
vn 1 0 0
usemtl m_f886a12e-f710-fe62-e1aa-8b2ea556459e
f 4/1/1 9/2/1 12/3/1 3/4/1
f 7/5/2 11/6/2 10/7/2 8/8/2
f 5/9/3 1/10/3 2/11/3 6/12/3
f 4/13/4 3/14/4 7/15/4 8/16/4
f 3/17/5 12/18/5 11/19/5 7/20/5
f 8/21/6 10/22/6 9/23/6 4/24/6
f 2/25/7 9/26/7 10/27/7 6/28/7
f 6/29/8 10/30/8 11/31/8 5/32/8
f 5/33/9 11/34/9 12/35/9 1/36/9
f 1/37/10 12/38/10 9/39/10 2/40/10